<mxfile host="65bd71144e">
    <diagram id="Q-uecqltMAHMpa8mvasU" name="Page-1">
        <mxGraphModel dx="1166" dy="764" grid="1" gridSize="10" guides="1" tooltips="1" connect="1" arrows="1" fold="1" page="1" pageScale="1" pageWidth="850" pageHeight="1100" math="0" shadow="0">
            <root>
                <mxCell id="0"/>
                <mxCell id="1" parent="0"/>
                <mxCell id="21" value="&lt;font style=&quot;font-size: 20px;&quot;&gt;RS&lt;/font&gt;" style="rounded=0;whiteSpace=wrap;html=1;strokeColor=#E05561;" parent="1" vertex="1">
                    <mxGeometry x="120" y="280" width="560" height="160" as="geometry"/>
                </mxCell>
                <mxCell id="23" value="backend packet" style="shape=flexArrow;endArrow=classic;html=1;" parent="1" edge="1">
                    <mxGeometry x="-0.5" width="50" height="50" relative="1" as="geometry">
                        <mxPoint x="345" y="160" as="sourcePoint"/>
                        <mxPoint x="345" y="280" as="targetPoint"/>
                        <mxPoint as="offset"/>
                    </mxGeometry>
                </mxCell>
                <mxCell id="24" value="RF_inputs" style="shape=flexArrow;endArrow=classic;html=1;" parent="1" edge="1">
                    <mxGeometry width="50" height="50" relative="1" as="geometry">
                        <mxPoint x="399.40999999999997" y="440" as="sourcePoint"/>
                        <mxPoint x="399.40999999999997" y="560" as="targetPoint"/>
                    </mxGeometry>
                </mxCell>
                <mxCell id="25" value="" style="shape=flexArrow;endArrow=classic;html=1;" parent="1" edge="1">
                    <mxGeometry width="50" height="50" relative="1" as="geometry">
                        <mxPoint x="220" y="160" as="sourcePoint"/>
                        <mxPoint x="220" y="280" as="targetPoint"/>
                    </mxGeometry>
                </mxCell>
                <mxCell id="26" value="flush" style="edgeLabel;html=1;align=center;verticalAlign=middle;resizable=0;points=[];" parent="25" vertex="1" connectable="0">
                    <mxGeometry x="-0.3951" y="1" relative="1" as="geometry">
                        <mxPoint as="offset"/>
                    </mxGeometry>
                </mxCell>
                <mxCell id="29" value="Driver" style="rounded=0;whiteSpace=wrap;html=1;strokeColor=#E05561;fontSize=20;" parent="1" vertex="1">
                    <mxGeometry x="275" y="20" width="150" height="140" as="geometry"/>
                </mxCell>
                <mxCell id="32" value="Scoreboard" style="rounded=0;whiteSpace=wrap;html=1;strokeColor=#E05561;fontSize=20;" parent="1" vertex="1">
                    <mxGeometry x="320" y="560" width="680" height="60" as="geometry"/>
                </mxCell>
                <mxCell id="35" value="Monitor" style="rounded=0;whiteSpace=wrap;html=1;strokeColor=#E05561;fontSize=20;" parent="1" vertex="1">
                    <mxGeometry x="830" y="320" width="150" height="130" as="geometry"/>
                </mxCell>
                <mxCell id="41" value="" style="shape=flexArrow;endArrow=classic;html=1;fontSize=20;exitX=1;exitY=0.5;exitDx=0;exitDy=0;" parent="1" edge="1">
                    <mxGeometry width="50" height="50" relative="1" as="geometry">
                        <mxPoint x="680" y="410" as="sourcePoint"/>
                        <mxPoint x="830" y="410" as="targetPoint"/>
                    </mxGeometry>
                </mxCell>
                <mxCell id="42" value="" style="shape=flexArrow;endArrow=classic;html=1;fontSize=20;exitX=0.5;exitY=1;exitDx=0;exitDy=0;entryX=0.86;entryY=0;entryDx=0;entryDy=0;entryPerimeter=0;" parent="1" source="35" target="32" edge="1">
                    <mxGeometry width="50" height="50" relative="1" as="geometry">
                        <mxPoint x="1180" y="430" as="sourcePoint"/>
                        <mxPoint x="905" y="550" as="targetPoint"/>
                    </mxGeometry>
                </mxCell>
                <mxCell id="44" value="FUs" style="shape=flexArrow;endArrow=classic;html=1;" parent="1" edge="1">
                    <mxGeometry x="-0.5" width="50" height="50" relative="1" as="geometry">
                        <mxPoint x="600" y="160" as="sourcePoint"/>
                        <mxPoint x="600" y="280" as="targetPoint"/>
                        <mxPoint as="offset"/>
                    </mxGeometry>
                </mxCell>
                <mxCell id="45" value="Driver" style="rounded=0;whiteSpace=wrap;html=1;strokeColor=#E05561;fontSize=20;" parent="1" vertex="1">
                    <mxGeometry x="530" y="20" width="150" height="140" as="geometry"/>
                </mxCell>
                <mxCell id="47" value="" style="shape=flexArrow;endArrow=classic;html=1;fontSize=20;exitX=1;exitY=0.5;exitDx=0;exitDy=0;" parent="1" edge="1">
                    <mxGeometry width="50" height="50" relative="1" as="geometry">
                        <mxPoint x="680" y="359.5" as="sourcePoint"/>
                        <mxPoint x="830" y="359.5" as="targetPoint"/>
                    </mxGeometry>
                </mxCell>
                <mxCell id="48" value="" style="shape=flexArrow;endArrow=classic;html=1;fontSize=20;exitX=1;exitY=0.5;exitDx=0;exitDy=0;entryX=0;entryY=0.5;entryDx=0;entryDy=0;" parent="1" source="29" target="45" edge="1">
                    <mxGeometry width="50" height="50" relative="1" as="geometry">
                        <mxPoint x="450" y="40" as="sourcePoint"/>
                        <mxPoint x="500" y="-10" as="targetPoint"/>
                    </mxGeometry>
                </mxCell>
            </root>
        </mxGraphModel>
    </diagram>
</mxfile>